<svg width="60" height="60" viewBox="0 0 60 60" fill="none" xmlns="http://www.w3.org/2000/svg">
<path d="M15 0C14.4317 0 13.8866 0.225763 13.4848 0.627627C13.0829 1.02949 12.8571 1.57454 12.8571 2.14286V4.28571H8.57143C3.85992 4.28571 0 8.14564 0 12.8571V51.4286C0 56.1401 3.85992 60 8.57143 60H51.4286C56.1401 60 60 56.1401 60 51.4286V12.8571C60 8.14564 56.1401 4.28571 51.4286 4.28571H47.1429V2.14286C47.1429 1.57454 46.9171 1.02949 46.5152 0.627627C46.1134 0.225763 45.5683 0 45 0C44.4317 0 43.8866 0.225763 43.4848 0.627627C43.0829 1.02949 42.8571 1.57454 42.8571 2.14286V4.28571H32.1429V2.14286C32.1429 1.57454 31.9171 1.02949 31.5152 0.627627C31.1134 0.225763 30.5683 0 30 0C29.4317 0 28.8866 0.225763 28.4848 0.627627C28.0829 1.02949 27.8571 1.57454 27.8571 2.14286V4.28571H17.1429V2.14286C17.1429 1.57454 16.9171 1.02949 16.5152 0.627627C16.1134 0.225763 15.5683 0 15 0ZM8.57143 8.57143H12.8571V10.7143C12.8571 11.2826 13.0829 11.8277 13.4848 12.2295C13.8866 12.6314 14.4317 12.8571 15 12.8571C15.5683 12.8571 16.1134 12.6314 16.5152 12.2295C16.9171 11.8277 17.1429 11.2826 17.1429 10.7143V8.57143H27.8571V10.7143C27.8571 11.2826 28.0829 11.8277 28.4848 12.2295C28.8866 12.6314 29.4317 12.8571 30 12.8571C30.5683 12.8571 31.1134 12.6314 31.5152 12.2295C31.9171 11.8277 32.1429 11.2826 32.1429 10.7143V8.57143H42.8571V10.7143C42.8571 11.2826 43.0829 11.8277 43.4848 12.2295C43.8866 12.6314 44.4317 12.8571 45 12.8571C45.5683 12.8571 46.1134 12.6314 46.5152 12.2295C46.9171 11.8277 47.1429 11.2826 47.1429 10.7143V8.57143H51.4286C53.8399 8.57143 55.7143 10.4458 55.7143 12.8571V17.1429H4.28571V12.8571C4.28571 10.4458 6.16008 8.57143 8.57143 8.57143ZM11.7941 27.8613H16.0714C16.6657 27.8613 17.1429 28.3426 17.1429 28.9369V33.2143C17.1429 33.8086 16.6657 34.2857 16.0714 34.2857H11.7941C11.1998 34.2857 10.7185 33.8086 10.7185 33.2143V28.9369C10.7185 28.3426 11.1998 27.8613 11.7941 27.8613ZM22.5 27.8613H26.7773C27.3716 27.8613 27.853 28.3426 27.853 28.9369V33.2143C27.853 33.8086 27.3716 34.2857 26.7773 34.2857H22.5C21.9057 34.2857 21.4286 33.8086 21.4286 33.2143V28.9369C21.4286 28.3426 21.9057 27.8613 22.5 27.8613ZM33.2227 27.8613H37.5C38.0943 27.8613 38.5714 28.3426 38.5714 28.9369V33.2143C38.5714 33.8086 38.0943 34.2857 37.5 34.2857H33.2227C32.6284 34.2857 32.147 33.8086 32.147 33.2143V28.9369C32.147 28.3426 32.6284 27.8613 33.2227 27.8613ZM43.9286 27.8613H48.2059C48.8002 27.8613 49.2815 28.3426 49.2815 28.9369V33.2143C49.2815 33.8086 48.8002 34.2857 48.2059 34.2857H43.9286C43.3343 34.2857 42.8571 33.8086 42.8571 33.2143V28.9369C42.8571 28.3426 43.3343 27.8613 43.9286 27.8613ZM11.7941 40.7143H16.0714C16.6657 40.7143 17.1429 41.1914 17.1429 41.7857V46.063C17.1429 46.6573 16.6657 47.1387 16.0714 47.1387H11.7941C11.1998 47.1387 10.7185 46.6573 10.7185 46.063V41.7857C10.7185 41.1914 11.1998 40.7143 11.7941 40.7143ZM22.5 40.7143H26.7773C27.3716 40.7143 27.853 41.1914 27.853 41.7857V46.063C27.853 46.6573 27.3716 47.1387 26.7773 47.1387H22.5C21.9057 47.1387 21.4286 46.6573 21.4286 46.063V41.7857C21.4286 41.1914 21.9057 40.7143 22.5 40.7143ZM33.2227 40.7143H37.5C38.0943 40.7143 38.5714 41.1914 38.5714 41.7857V46.063C38.5714 46.6573 38.0943 47.1387 37.5 47.1387H33.2227C32.6284 47.1387 32.147 46.6573 32.147 46.063V41.7857C32.147 41.1914 32.6284 40.7143 33.2227 40.7143ZM43.9286 40.7143H48.2059C48.8002 40.7143 49.2815 41.1914 49.2815 41.7857V46.063C49.2815 46.6573 48.8002 47.1387 48.2059 47.1387H43.9286C43.3343 47.1387 42.8571 46.6573 42.8571 46.063V41.7857C42.8571 41.1914 43.3343 40.7143 43.9286 40.7143Z" fill="#FFA41B"/>
</svg>
