<svg width="75" height="54" viewBox="0 0 75 54" fill="none" xmlns="http://www.w3.org/2000/svg">
<path fill-rule="evenodd" clip-rule="evenodd" d="M12.2102 19.121C13.7476 15.8541 15.1889 12.395 17.0145 8.64769C17.9754 6.91815 19.2245 5.2847 21.2423 5.09253H52.8544C54.9683 5.2847 56.1213 6.91815 57.1782 8.64769C59.0038 12.395 60.4451 15.8541 61.9825 19.121H12.2102ZM21.2423 0C17.8793 0 15.7654 1.24911 12.9789 5.18861L8.27075 15.758H1.06434C0.00740138 15.758 -2.01039 21.6192 5.48427 21.8114L2.98605 27.9609C2.98605 35.6477 3.08213 43.4306 3.08213 51.1174C3.08213 52.7509 4.33124 54 5.9647 54H15.6693C17.3028 54 18.5519 52.7509 18.5519 51.1174V44.6797H55.5448V51.1174C55.5448 52.7509 56.89 54 58.4273 54H68.228C69.8615 54 71.1106 52.7509 71.1106 51.1174C71.1106 43.4306 71.2067 35.6477 71.2067 27.9609L68.6124 21.8114C76.2031 21.6192 74.0892 15.758 73.0323 15.758H65.8259L61.2138 5.18861C58.3312 1.24911 56.3134 0 52.8544 0H21.2423ZM60.5412 28.4413C57.9469 28.4413 55.833 30.5552 55.833 33.1495C55.833 35.7438 57.9469 37.8577 60.5412 37.8577C63.1355 37.8577 65.2494 35.7438 65.2494 33.1495C65.2494 30.5552 63.1355 28.4413 60.5412 28.4413ZM13.5554 28.4413C16.1497 28.4413 18.2636 30.5552 18.2636 33.1495C18.2636 35.7438 16.1497 37.8577 13.5554 37.8577C10.9611 37.8577 8.84726 35.7438 8.84726 33.1495C8.84726 30.5552 10.9611 28.4413 13.5554 28.4413Z" fill="#FFA41B"/>
</svg>
