<svg width="56" height="60" viewBox="0 0 56 60" fill="none" xmlns="http://www.w3.org/2000/svg">
<path d="M39.2401 16.1486H16.1584C16.1584 16.1486 0 29.9951 0 46.1535C0 55.3824 6.94851 60 11.5408 60H43.8577C48.469 60 55.3985 55.3824 55.3985 46.1535C55.3985 29.9951 39.2401 16.1486 39.2401 16.1486ZM30.0049 48.2254V51.9208H25.3936V48.2381C21.9952 47.6064 19.8601 45.5092 19.7085 42.4645H23.707C23.9029 44.0627 25.5136 45.0923 27.8446 45.0923C29.9923 45.0923 31.5146 44.05 31.5146 42.5656C31.5146 41.3022 30.5292 40.5821 28.1035 40.0388L25.5326 39.4893C21.932 38.7376 20.1633 36.8615 20.1633 33.8484C20.1633 30.8352 22.1721 28.6622 25.3684 27.9484V24.2278H29.9796V27.9548C33.1002 28.6496 35.1784 30.7784 35.2795 33.6399H31.4199C31.2241 32.0796 29.7712 31.0374 27.7751 31.0374C25.779 31.0374 24.3387 31.9975 24.3387 33.5009C24.3387 34.7201 25.2799 35.396 27.5982 35.914L29.9796 36.4193C33.9529 37.2531 35.6648 38.946 35.6648 42.035C35.6648 45.3387 33.5423 47.5495 30.0049 48.2254Z" fill="#FFA41B"/>
<path d="M39.2401 2.29583H32.8601C32.2085 1.57313 31.4125 0.995337 30.5235 0.599849C29.6344 0.204361 28.6722 0 27.6992 0C26.7262 0 25.764 0.204361 24.875 0.599849C23.986 0.995337 23.1899 1.57313 22.5384 2.29583H16.1584C15.7825 2.29746 15.4127 2.3907 15.081 2.56748C14.7493 2.74426 14.4657 2.99924 14.2548 3.31034C14.0439 3.62145 13.912 3.97928 13.8705 4.35286C13.8291 4.72643 13.8794 5.10447 14.017 5.45424L16.1584 11.5247H39.2401L41.3815 5.45424C41.5191 5.10447 41.5693 4.72643 41.5279 4.35286C41.4865 3.97928 41.3546 3.62145 41.1436 3.31034C40.9327 2.99924 40.6491 2.74426 40.3174 2.56748C39.9857 2.3907 39.6159 2.29746 39.2401 2.29583Z" fill="#FFA41B"/>
</svg>
