<svg width="60" height="60" viewBox="0 0 60 60" fill="none" xmlns="http://www.w3.org/2000/svg">
<path d="M58.741 26.7828L55.4322 26.0553C54.8084 25.9186 54.3295 25.4282 54.1972 24.8031C53.6735 22.3284 52.7809 19.9909 51.5758 17.8511C51.2811 17.3281 51.2998 16.6859 51.6236 16.1804L53.6469 13.0216C54.0588 12.3788 53.9675 11.536 53.4277 10.9962L50.0702 7.63852C49.5304 7.09864 48.6879 7.00753 48.0451 7.41914L45.2209 9.22741C44.6838 9.57123 43.9967 9.56667 43.4609 9.22012C41.3846 7.8758 39.0936 6.8358 36.6502 6.16198C36.0704 6.0021 35.6269 5.53432 35.4981 4.94667L34.6995 1.29025C34.536 0.544445 33.8753 0 33.112 0H28.3632C27.5998 0 26.9394 0.544445 26.7762 1.29025L26.0523 4.59716C25.9165 5.21778 25.4305 5.70309 24.81 5.83802C22.3426 6.37531 20.0137 7.28333 17.883 8.49864C17.3585 8.79741 16.7127 8.78272 16.2042 8.45716L13.0151 6.41494C12.3722 6.00358 11.5293 6.09494 10.9896 6.63457L7.63173 9.99259C7.09185 10.5322 7.00074 11.3753 7.41235 12.0181L9.28037 14.9353C9.62247 15.4694 9.61988 16.1523 9.27839 16.6872C7.97272 18.7323 6.96049 20.9826 6.30074 23.3791C6.14086 23.9598 5.67333 24.404 5.08494 24.5332L1.28667 25.3635C0.540864 25.5272 0 26.1877 0 26.951V31.6995C0 32.463 0.540864 33.1233 1.28667 33.287L4.75926 34.047C5.37827 34.1828 5.86173 34.6668 5.99852 35.2854C6.52975 37.687 7.41321 39.9568 8.58852 42.0386C8.88432 42.5626 8.86852 43.2057 8.54395 43.7123L6.40852 47.0481C5.99667 47.6907 6.08815 48.5335 6.62803 49.0733L9.98593 52.4312C10.5258 52.9709 11.3684 53.0622 12.0112 52.6504L15.0409 50.7105C15.5762 50.3677 16.2602 50.3715 16.7958 50.7146C18.8042 52.001 21.0112 53.0041 23.361 53.6679C23.9373 53.8306 24.3769 54.2963 24.5049 54.8807L25.3568 58.7447C25.5202 59.4902 26.1807 60 26.9441 60H31.6928C32.4563 60 33.1164 59.4902 33.2801 58.7447L34.0442 55.27C34.1806 54.6477 34.6693 54.1705 35.292 54.0364C37.7011 53.5183 39.9795 52.651 42.0707 51.4857C42.593 51.1944 43.2322 51.2138 43.7359 51.5364L47.041 53.6535C47.6838 54.0653 48.5265 53.9741 49.0662 53.4344L52.4243 50.0765C52.9637 49.5369 53.0551 48.6941 52.6437 48.0512L50.7632 45.1154C50.4189 44.5773 50.4244 43.8885 50.7723 43.3526C52.0973 41.313 53.1281 39.0647 53.8062 36.6683C53.9694 36.0927 54.4351 35.6541 55.0188 35.5265L58.7406 34.7062C59.4864 34.5427 59.9995 33.8822 59.9995 33.1189V28.3701C59.9999 27.6068 59.4868 26.9464 58.741 26.7828ZM29.8649 48.7761C19.7073 48.7761 11.4725 40.5414 11.4725 30.3836C11.4725 20.2258 19.7072 11.9911 29.8649 11.9911C40.0227 11.9911 48.2572 20.2258 48.2572 30.3836C48.2572 40.5414 40.0227 48.7761 29.8649 48.7761Z" fill="#FFA41B"/>
<path d="M22.7425 27.7975C24.3453 27.7975 25.6443 26.4982 25.6443 24.8958C25.6443 23.2931 24.3454 21.9938 22.7425 21.9938C21.1401 21.9938 19.8408 23.293 19.8408 24.8958C19.8408 26.4982 21.14 27.7975 22.7425 27.7975Z" fill="#FFA41B"/>
<path d="M37.4925 27.7975C39.0953 27.7975 40.3943 26.4982 40.3943 24.8958C40.3943 23.2931 39.0954 21.9938 37.4925 21.9938C35.8901 21.9938 34.5908 23.293 34.5908 24.8958C34.5908 26.4982 35.8901 27.7975 37.4925 27.7975Z" fill="#FFA41B"/>
<path d="M30.1066 29.6675C31.7093 29.6675 33.0085 28.3683 33.0085 26.7656C33.0085 25.1628 31.7093 23.8636 30.1066 23.8636C28.5038 23.8636 27.2046 25.1628 27.2046 26.7656C27.2046 28.3683 28.5038 29.6675 30.1066 29.6675Z" fill="#FFA41B"/>
<path d="M29.9999 30.8179C26.8975 30.8179 24.4443 33.3328 24.4443 36.4349V37.5882C24.4443 37.8127 24.6436 38.0248 24.8687 38.0248H35.2891C35.5136 38.0248 35.5554 37.8127 35.5554 37.5882V36.4349C35.5554 33.3328 33.1022 30.8179 29.9999 30.8179Z" fill="#FFA41B"/>
<path d="M26.432 30.3869C25.4428 29.5074 24.0499 28.9599 22.6231 28.9599C19.5202 28.9599 16.9136 31.4646 16.9136 34.5645V35.7171C16.9136 35.9422 17.28 36.1729 17.5052 36.1729H23.0807C23.2039 33.5804 24.5104 31.6208 26.432 30.3869Z" fill="#FFA41B"/>
<path d="M37.468 28.948C36.0348 28.948 34.7312 29.5126 33.7407 30.3952C35.6545 31.6282 36.9537 33.5805 37.0769 36.1731H42.6742C42.8991 36.1731 43.0862 35.9424 43.0862 35.7173V34.5647C43.0862 33.0147 42.4563 31.609 41.44 30.5953C40.4232 29.5757 39.0206 28.948 37.468 28.948Z" fill="#FFA41B"/>
</svg>
