<svg width="54" height="60" viewBox="0 0 54 60" fill="none" xmlns="http://www.w3.org/2000/svg">
<path d="M13.3825 25.9116H13.545C13.6305 25.9127 13.715 25.892 13.7904 25.8516C13.8658 25.8112 13.9297 25.7523 13.9762 25.6804C14.4879 26.7678 15.0855 27.8125 15.7633 28.8049L15.8321 28.8799C16.0633 29.2298 16.357 29.6485 16.7132 30.1297L16.9381 30.4171L16.9756 30.4609L17.1756 30.7046L17.2318 30.7671C18.7462 32.6292 20.6428 34.1444 22.7934 35.21C26.1865 36.791 29.4797 36.6035 33.1791 33.9977C34.1567 33.284 35.0351 32.4435 35.7911 31.4982H36.7535C37.9357 31.4899 39.0663 31.0128 39.897 30.1715C40.7277 29.3303 41.1906 28.1937 41.1839 27.0115V25.6617C41.9518 25.3801 42.6147 24.8695 43.083 24.199C43.5512 23.5284 43.8023 22.7302 43.8022 21.9123V17.938C43.8032 17.215 43.6078 16.5052 43.2369 15.8845C42.8661 15.2637 42.3336 14.7554 41.6963 14.4136C41.4468 10.6584 39.8266 7.12556 37.1435 4.48629C34.4605 1.84703 30.9015 0.285165 27.1426 0.0973829C27.0864 0.0973829 27.0301 0.00364913 26.9739 0.00364913C23.3502 -0.0748951 19.8132 1.11664 16.9756 3.37181C15.3289 4.71846 13.9875 6.40002 13.0405 8.30484C12.0935 10.2097 11.5625 12.2941 11.4828 14.4199C10.847 14.7617 10.3155 15.2692 9.94473 15.8886C9.57397 16.508 9.37778 17.2162 9.37695 17.938V21.9123C9.37861 22.9736 9.80135 23.9908 10.5524 24.7407C11.3034 25.4905 12.3212 25.9116 13.3825 25.9116ZM39.628 25.9116V27.1239C39.6286 27.8181 39.3612 28.4858 38.8815 28.9876C38.4018 29.4894 37.7469 29.7866 37.0534 29.8172C37.4658 29.1923 37.8845 28.5674 38.3032 27.8738C38.7219 27.1802 39.0156 26.499 39.3093 25.7929C39.3932 25.864 39.4992 25.9038 39.6092 25.9054L39.628 25.9116ZM15.2072 17.9943C15.2124 17.9113 15.2465 17.8327 15.3036 17.7722C15.3607 17.7117 15.4371 17.6731 15.5196 17.6631C18.7191 17.1632 20.9749 15.1635 22.256 11.7079C22.281 11.6495 22.3206 11.5987 22.371 11.5601C22.4214 11.5216 22.4809 11.4967 22.5437 11.4879C22.6066 11.4791 22.6706 11.4867 22.7297 11.5099C22.7887 11.5331 22.8408 11.5712 22.8809 11.6204C26.1928 16.1571 29.7547 18.088 38.2594 17.7193C38.352 17.7152 38.4428 17.7455 38.5143 17.8043C38.5858 17.8632 38.6331 17.9464 38.6469 18.038C38.9274 21.5073 38.1867 24.9829 36.516 28.0363C36.1823 28.6503 35.8108 29.243 35.4037 29.811H30.1546V28.5612C30.1546 28.1866 30.0058 27.8274 29.741 27.5626C29.4761 27.2977 29.1169 27.1489 28.7423 27.1489H26.9364C26.5618 27.1489 26.2026 27.2977 25.9378 27.5626C25.6729 27.8274 25.5241 28.1866 25.5241 28.5612V30.6233C25.5258 30.8432 25.6139 31.0537 25.7694 31.2092C25.9249 31.3647 26.1353 31.4528 26.3553 31.4544H34.0414C32.6717 32.9033 30.9714 33.9989 29.086 34.6476C28.2553 34.9328 27.3705 35.0247 26.499 34.9163C23.5008 34.4811 20.7823 32.9163 18.9003 30.5421C16.382 27.4989 14.876 23.0746 15.2072 17.9943Z" fill="#FFA41B"/>
<path d="M30.5608 52.9632L31.0732 51.6072C31.1256 51.4736 31.1467 51.3298 31.1348 51.1868C31.1229 51.0437 31.0783 50.9054 31.0044 50.7823L28.5486 46.5893C28.4885 46.4807 28.4693 46.3542 28.4945 46.2326C28.5197 46.1111 28.5877 46.0026 28.6861 45.9269C33.1603 42.0776 31.2544 38.8969 26.674 38.5594H26.5802C22.006 38.8969 20.0938 42.0776 24.5681 45.9269C24.6624 46.006 24.7255 46.1161 24.7461 46.2374C24.7667 46.3588 24.7434 46.4835 24.6806 46.5893L22.5184 50.5136C22.4515 50.6347 22.4112 50.7688 22.4005 50.9068C22.3897 51.0448 22.4086 51.1834 22.4559 51.3135L23.0808 52.9632C23.0965 53.0167 23.1243 53.0659 23.1621 53.1069C24.0557 55.619 24.9368 58.0186 25.5616 59.787C25.5731 59.8553 25.5731 59.925 25.5616 59.9932H28.0612C28.0498 59.925 28.0498 59.8553 28.0612 59.787C28.6861 58.0186 29.5672 55.619 30.4795 53.1194C30.5164 53.073 30.544 53.02 30.5608 52.9632Z" fill="#FFA41B"/>
<path d="M20.5626 52.5258C20.5249 52.4837 20.4953 52.4349 20.4752 52.3821L16.0197 40.6216C15.971 40.5025 15.8811 40.4048 15.7664 40.3463C15.6517 40.2878 15.5198 40.2724 15.3948 40.3029C10.7081 41.634 6.51508 43.1212 3.57809 44.9084C0.641097 46.6956 -0.421219 52.9507 0.147432 56.8688V56.9438C0.709835 58.6622 1.56594 59.7496 2.81572 59.9995H2.94695H22.881C22.921 60.0021 22.961 59.995 22.9977 59.9788C23.0344 59.9627 23.0667 59.9379 23.0918 59.9067C23.1169 59.8754 23.1342 59.8386 23.1421 59.7993C23.15 59.76 23.1483 59.7193 23.1372 59.6808C22.4873 57.8686 21.5562 55.2753 20.5626 52.5258Z" fill="#FFA41B"/>
<path d="M50.0453 44.9084C47.1083 43.1212 42.9152 41.634 38.2473 40.3154C38.1222 40.2849 37.9904 40.3003 37.8757 40.3588C37.761 40.4173 37.6711 40.515 37.6224 40.6341L33.1669 52.3821C33.1468 52.4349 33.1172 52.4837 33.0795 52.5258C32.0859 55.2753 31.1548 57.8686 30.5049 59.6746C30.4938 59.7131 30.4921 59.7537 30.5 59.7931C30.5079 59.8324 30.5251 59.8692 30.5503 59.9004C30.5754 59.9317 30.6077 59.9564 30.6444 59.9726C30.681 59.9888 30.7211 59.9958 30.7611 59.9933H50.6577H50.7889C52.0387 59.7433 52.8948 58.656 53.4572 56.9376V56.8626C54.0446 52.9507 52.9885 46.6456 50.0453 44.9084Z" fill="#FFA41B"/>
</svg>
