<svg width="90" height="55" viewBox="0 0 90 55" fill="none" xmlns="http://www.w3.org/2000/svg">
<path d="M77.4178 24.3287C82.1682 25.0113 86.5693 21.7033 87.2465 16.9561C87.9291 12.2259 84.6222 7.82265 79.857 7.14327C75.1046 6.48188 70.7129 9.7867 70.0325 14.5201C69.3711 19.2641 72.6749 23.6695 77.4178 24.3287Z" fill="#FFA41B"/>
<path d="M66.1882 52.6668C67.3014 51.8837 68.0348 50.5927 68.0348 49.1292C68.0348 49.1292 68.0411 19.4514 68.0401 19.4366C68.0856 17.5583 67.7469 15.3657 66.6242 12.973C65.5776 10.7296 63.24 6.99092 55.7224 3.23425C45.773 -1.7415 36.3761 0.354832 34.1887 0.931561C31.2797 1.61411 26.0521 4.63321 26.0521 10.4397L26.0182 32.8527L2.19559 46.3884C0.111955 47.5715 -0.616099 50.2191 0.56699 52.3007C1.36594 53.707 2.83158 54.4954 4.34165 54.4954C5.06759 54.4954 5.80306 54.3123 6.4782 53.9282L33.7316 38.4433C34.9221 37.766 35.7221 36.5692 35.8924 35.2115L37.2925 24.0155L42.718 30.2495L26.65 46.49C26.5854 46.5545 23.9536 49.2646 26.4415 52.3631C26.5325 52.4753 26.6277 52.5663 26.7219 52.6647H16.7207V54.8827H89.8129V52.6647L66.1882 52.6668ZM32.7495 52.6647L52.8917 35.384C54.4303 34.0157 55.0303 32.2548 53.952 30.1617L47.4577 17.1128C48.0651 17.2683 48.6821 17.4514 49.3011 17.6885C53.8398 19.4303 58.1976 22.8028 59.3595 23.8579L59.3764 23.8632L59.3754 49.1281C59.3754 50.5916 60.1055 51.8827 61.2188 52.6658L32.7495 52.6647Z" fill="#FFA41B"/>
</svg>
